# xmcd
#
# Track frame offsets:
#	150
#	27157
#	53771
#	72974
#	88175
#	108889
#	125227
#	138963
#	154886
#	170575
#	192533
#	209145
#	228270
#	242328
#	262797
#
# Disc length: 3699 seconds
#
# Revision: 1
# Processed by: cddbd v1.5.2PL0 Copyright (c) Steve Scherf et al.
# Submitted via: audiograbber 1.83.01
#
DISCID=d30e710f
DTITLE=The Burns Sisters Band - Wild Bouquet
DYEAR=1900
DGENRE=Country
TTITLE0=Democracy
TTITLE1=God's Promise
TTITLE2=Vigilante Man
TTITLE3=Ella
TTITLE4=To Live Again
TTITLE5=Wild Flower Honey
TTITLE6=Never Loved at All
TTITLE7=Can't Stand the Rain
TTITLE8=The Time of Day
TTITLE9=Nowhere to Fall
TTITLE10=Blue Diamond
TTITLE11=I Am a Patriot
TTITLE12=Johnny We Hardly Knew You
TTITLE13=Bring Them Home
TTITLE14=Pie Jesu
EXTD=
EXTT0=
EXTT1=
EXTT2=
EXTT3=
EXTT4=
EXTT5=
EXTT6=
EXTT7=
EXTT8=
EXTT9=
EXTT10=
EXTT11=
EXTT12=
EXTT13=
EXTT14=
PLAYORDER=
